# xmcd
#
# Track frame offsets:
#	300
#	14026
#	32402
#	49692
#	63709
#	79012
#	97395
#	116448
#	137224
#	160627
#	177735
#	193941
#	212544
#	228580
#	248608
#
# Disc length: 3553 seconds
#
# Revision: 0
# Processed by: cddbd v1.5.2PL0 Copyright (c) Steve Scherf et al.
# Submitted via: EasyCDDAExtractor 10.1.0.1
#
DISCID=d70ddd0f
DTITLE=Various Artist - CBE530
DYEAR=1900
DGENRE=karaoke
TTITLE0=Travis Tritt - The Girls' Gone Wild
TTITLE1=Kenny Chesney - I Go Back
TTITLE2=Gretchen Wilson - Redneck Woman
TTITLE3=Joe Nichols - Cool To Be A Fool
TTITLE4=David Lee Murphy - Loco
TTITLE5=Joe Nichols - If Nobody Believed In You
TTITLE6=Sara Evans - Perfect
TTITLE7=John Michael Montgomery - Letters From Home
TTITLE8=Tim McGraw - Live Like You Were Dying
TTITLE9=Kenny Chesney and Uncle Kracker - When The Sun Goes Down
TTITLE10=Gretchen Wilson - Here For The Party
TTITLE11=Andy Griggs - She Thinks She Needs Me
TTITLE12=Trace Adkins - Hot Mama
TTITLE13=Sugarland - Baby Girl
TTITLE14=Josh Gracin - I Want To Live
EXTD=
EXTT0=
EXTT1=
EXTT2=
EXTT3=
EXTT4=
EXTT5=
EXTT6=
EXTT7=
EXTT8=
EXTT9=
EXTT10=
EXTT11=
EXTT12=
EXTT13=
EXTT14=
PLAYORDER=
